<svg xmlns="http://www.w3.org/2000/svg" viewBox="0 0 945 323"><path d="M6.41 98V85.766h.926V98zm9.453 14.621H14.82L7.361 97.328h1.043zm8 14H22.82l-7.459-15.293h1.043zm8 14H30.82l-7.459-15.293h1.043zm8 14H38.82l-7.459-15.293h1.043zm8 14H46.82l-7.459-15.293h1.043zm3.746 9.383l2.057-7.752h1.225L52.33 179h-1.436l-2.561-8.748h1.225zm327.532 60.617v-7.535h4.2v1.008h-3.263v6.527z"/><path d="M379.14 252.621v-15.293h.938v15.293z"/><path d="M379.14 266.621v-15.293h.938v15.293z"/><path d="M379.14 280.621v-15.293h.938v15.293z"/><path d="M379.14 294.621v-15.293h.938v15.293z"/><path d="M379.14 308.621v-15.293h.938v15.293z"/><path d="M379.14 316.094v-8.766h.938v7.758h3.264v1.008zm4.743 0v-1.008h7.459v1.008zm8 0v-1.008h7.459v1.008zm8 0v-1.008h7.459v1.008zm8 0v-1.008h7.459v1.008zm8 0v-1.008h7.459v1.008zm8 0v-1.008h7.459v1.008zm8 0v-1.008h7.459v1.008zm8 0v-1.008h7.459v1.008zm8 0v-1.008h7.459v1.008zm8 0v-1.008h7.459v1.008zm8 0v-1.008h7.459v1.008zm8 0v-1.008h7.459v1.008zm8 0v-1.008h7.459v1.008zm8 0v-1.008h7.459v1.008zm8 0v-1.008h7.459v1.008zm8 0v-1.008h7.459v1.008zm8 0v-1.008h7.459v1.008zm8 0v-1.008h3.258v-7.758h.937v8.766zM397.93 268.55v1.201q-.54-.346-1.081-.522-.542-.175-1.093-.175-.838 0-1.324.39-.487.389-.487 1.051 0 .58.32.885.319.305 1.192.51l.621.14q1.23.287 1.793.903.563.615.563 1.675 0 1.248-.774 1.905-.773.656-2.25.656-.615 0-1.236-.132t-1.248-.395v-1.26q.674.428 1.274.627t1.21.199q.897 0 1.395-.401.498-.402.498-1.122 0-.657-.343-1.002-.343-.346-1.192-.534l-.633-.146q-1.219-.275-1.77-.832-.55-.557-.55-1.494 0-1.172.788-1.878t2.094-.706q.504 0 1.06.114.557.114 1.173.343zm125.21 26.07v-15.293h.938v15.293z"/><path d="M523.14 308.621v-15.293h.938v15.293zM406.564 273.18v.527h-4.67v.035q-.047 1.342.512 1.928.56.586 1.58.586.515 0 1.077-.164.563-.164 1.202-.498v1.072q-.616.252-1.187.378-.571.126-1.104.126-1.53 0-2.391-.917t-.861-2.528q0-1.57.843-2.508.844-.938 2.25-.938 1.254 0 1.978.85t.77 2.05zm-1.079-.317q-.07-.68-.495-1.175t-1.221-.495q-.78 0-1.284.516t-.55 1.16zm8.733 3.803q-.434.252-.894.378t-.94.126q-1.524 0-2.382-.914-.858-.914-.858-2.531 0-1.618.858-2.532.858-.914 2.382-.914.474 0 .926.123.45.123.908.381v1.131q-.428-.38-.859-.55-.43-.17-.975-.17-1.014 0-1.559.656-.545.656-.545 1.875 0 1.212.548 1.872.548.659 1.556.659.562 0 1.008-.173.445-.173.826-.536zm8.55-4.875q-.345-.27-.703-.393-.357-.123-.785-.123-1.008 0-1.54.633-.534.633-.534 1.828V277h-1.084v-6.563h1.084v1.284q.27-.698.83-1.07.559-.372 1.326-.372.399 0 .744.1.346.1.663.31zm7.796 1.389v.527h-4.67v.035q-.047 1.342.512 1.928.56.586 1.58.586.515 0 1.077-.164.563-.164 1.202-.498v1.072q-.616.252-1.187.378-.571.126-1.104.126-1.53 0-2.391-.917t-.861-2.528q0-1.57.843-2.508.844-.938 2.25-.938 1.254 0 1.978.85t.77 2.05zm-1.079-.317q-.07-.68-.495-1.175t-1.221-.495q-.78 0-1.284.516t-.55 1.16zm6.114-4.289v1.863h2.449v.838h-2.45v3.563q0 .726.276 1.014.275.287.961.287h1.213V277h-1.318q-1.213 0-1.711-.486-.498-.487-.498-1.676v-3.563h-1.752v-.837h1.752v-1.864zm12.613-.293h1.582l1.512 4.442 1.523-4.442h1.588V277h-1.096v-7.705l-1.558 4.594h-.897l-1.564-4.594V277h-1.09zm11.902 5.42h-.357q-.943 0-1.421.331-.478.331-.478.988 0 .591.358.92.357.328.99.328.89 0 1.4-.619.51-.618.516-1.708v-.24zm2.092-.445V277h-1.084v-.973q-.346.586-.87.865-.524.278-1.274.278-1.002 0-1.6-.566-.598-.565-.598-1.514 0-1.096.736-1.664.735-.569 2.159-.569h1.447v-.17q-.006-.785-.398-1.14-.393-.354-1.254-.354-.551 0-1.114.159-.562.158-1.095.462v-1.078q.597-.228 1.145-.342.548-.115 1.064-.115.814 0 1.391.24.577.24.935.721.223.293.316.724.094.43.094 1.292zm7.953-.322V277h-1.084v-4.066q0-.885-.31-1.301-.31-.416-.973-.416-.756 0-1.163.536-.407.536-.407 1.538V277h-1.078v-6.563h1.078v.985q.287-.563.779-.853.492-.29 1.166-.29 1.002 0 1.497.66.495.659.495 1.995zm5.955.767h-.357q-.943 0-1.421.331-.478.331-.478.988 0 .591.358.92.357.328.99.328.89 0 1.4-.619.51-.618.516-1.708v-.24zm2.092-.445V277h-1.084v-.973q-.346.586-.87.865-.524.278-1.274.278-1.002 0-1.6-.566-.598-.565-.598-1.514 0-1.096.736-1.664.735-.569 2.159-.569h1.447v-.17q-.006-.785-.398-1.14-.393-.354-1.254-.354-.551 0-1.114.159-.562.158-1.095.462v-1.078q.597-.228 1.145-.342.548-.115 1.064-.115.814 0 1.391.24.577.24.935.721.223.293.316.724.094.43.094 1.292zm6.822.41q0-1.213-.395-1.843-.396-.63-1.152-.63-.79 0-1.207.63-.416.63-.416 1.843t.42 1.849q.418.635 1.215.635.744 0 1.14-.638.395-.639.395-1.846zm1.078 2.912q0 1.477-.697 2.238-.697.762-2.05.762-.446 0-.932-.082-.487-.082-.973-.24v-1.067q.574.27 1.043.399t.861.129q.873 0 1.272-.475.398-.474.398-1.506v-.779q-.257.55-.703.82-.445.27-1.084.27-1.148 0-1.834-.92-.685-.92-.685-2.461 0-1.547.685-2.467.686-.92 1.834-.92.633 0 1.072.252.44.252.715.78v-.85h1.078zm8.457-3.398v.527h-4.67v.035q-.046 1.342.513 1.928.56.586 1.58.586.515 0 1.077-.164.563-.164 1.202-.498v1.072q-.616.252-1.187.378-.571.126-1.104.126-1.53 0-2.391-.917t-.861-2.528q0-1.57.843-2.508.844-.938 2.25-.938 1.254 0 1.978.85t.77 2.05zm-1.078-.317q-.07-.68-.495-1.175t-1.221-.495q-.78 0-1.284.516t-.55 1.16zm9.284-1.072q-.346-.27-.704-.393-.357-.123-.785-.123-1.008 0-1.54.633-.534.633-.534 1.828V277h-1.084v-6.563h1.084v1.284q.27-.698.83-1.07.559-.372 1.326-.372.399 0 .744.1.346.1.663.31zm20.373 8.83v-15.293h.937v15.293zm0-28v-15.293h.937v15.293z"/><path d="M523.14 266.621v-15.293h.938v15.293zm-139.257-34.527v-1.008h7.459v1.008zm8 0v-1.008h7.459v1.008zm8 0v-1.008h7.459v1.008zm8 0v-1.008h7.459v1.008zm8 0v-1.008h7.459v1.008zm8 0v-1.008h7.459v1.008zm8 0v-1.008h7.459v1.008zm8 0v-1.008h7.459v1.008zm8 0v-1.008h7.459v1.008zm8 0v-1.008h7.459v1.008zm8 0v-1.008h7.459v1.008zm8 0v-1.008h7.459v1.008zm8 0v-1.008h7.459v1.008zm8 0v-1.008h7.459v1.008zm8 0v-1.008h7.459v1.008zm8 0v-1.008h7.459v1.008zm8 0v-1.008h7.459v1.008zm11.258 6.527v-6.527h-3.258v-1.008h4.195v7.535zm-72-42v-15.293h.937v15.293z"/><path d="M451.14 210.621v-15.293h.938v15.293zm.47 10.836l-3.575-7.148h7.154zm-41.424-43.453h4.02V179h-5.315v-.996q1.095-1.154 1.916-2.04.82-.884 1.13-1.247.586-.715.792-1.157.205-.443.205-.906 0-.732-.431-1.148-.43-.416-1.18-.416-.534 0-1.12.193-.586.194-1.242.586v-1.195q.603-.287 1.186-.434.583-.146 1.152-.146 1.283 0 2.065.682.782.683.782 1.79 0 .563-.26 1.125-.261.563-.847 1.243-.328.38-.952 1.054-.624.674-1.901 2.016zm8.093-1.371h2.063V179h-2.063zm20.19 1.646q-.475.44-1.07.665-.594.226-1.286.226-1.664 0-2.59-1.192-.925-1.193-.925-3.343 0-2.145.937-3.343.938-1.198 2.608-1.198.55 0 1.054.155t.973.472v1.213q-.475-.452-.973-.665-.498-.214-1.054-.214-1.155 0-1.732.893-.577.894-.577 2.687 0 1.822.56 2.698.56.876 1.72.876.392 0 .688-.09.296-.092.536-.285v-2.35h-1.272v-.972h2.403zm8.094-3.1v.528h-4.67v.035q-.047 1.342.512 1.928.56.586 1.58.586.515 0 1.077-.164.563-.164 1.202-.498v1.072q-.616.252-1.187.378-.571.126-1.104.126-1.53 0-2.391-.917t-.861-2.528q0-1.57.843-2.508.844-.938 2.25-.938 1.254 0 1.978.85t.77 2.05zm-1.079-.316q-.07-.68-.495-1.175t-1.221-.495q-.78 0-1.284.516t-.55 1.16zm6.114-4.289v1.863h2.449v.838h-2.45v3.563q0 .726.276 1.014.275.287.961.287h1.213V179h-1.318q-1.213 0-1.711-.486-.498-.487-.498-1.676v-3.563h-1.752v-.838h1.752v-1.863zm14.74.65v3.288h1.371q.82 0 1.28-.434.46-.433.46-1.213t-.457-1.21q-.457-.43-1.283-.43zm-1.184-.972h2.555q1.465 0 2.22.665.757.665.757 1.948 0 1.295-.753 1.957-.753.662-2.224.662h-1.371V179h-1.184zm10.455 1.043l-1.248 4.476h2.496zm-.714-1.043h1.435l2.678 8.748h-1.225l-.644-2.28h-3.065l-.633 2.28h-1.224zm5.38 0h6.674v.996h-2.736V179h-1.19v-7.752h-2.748zm-424.914-1.63l7.46-15.294h1.042l-7.459 15.293zm395.78 0v-15.294h.937v15.293zm-387.78-14l7.46-15.294h1.042l-7.459 15.293zm384.674-3.165l3.574-7.148 3.58 7.148zM71.361 140.621l7.46-15.293h1.042l-7.459 15.293zm307.78-6.527v-8.766h.937v7.758h3.264v1.008zm4.742 0v-1.008h7.459v1.008zm8 0v-1.008h7.459v1.008zm8 0v-1.008h7.459v1.008zm8 0v-1.008h7.459v1.008zm8 0v-1.008h7.459v1.008zm8 0v-1.008h7.459v1.008zm8 0v-1.008h7.459v1.008zm8 0v-1.008h7.459v1.008zm8 0v-1.008h7.459v1.008zm8 0v-1.008h7.459v1.008zm8 0v-1.008h7.459v1.008zm8 0v-1.008h7.459v1.008zm8 0v-1.008h7.459v1.008zm8 0v-1.008h7.459v1.008zm8 0v-1.008h7.459v1.008zm8 0v-1.008h7.459v1.008zm8 0v-1.008h7.459v1.008zm8 0v-1.008h3.258v-7.758h.937v8.766zm275.258 0v-8.766h.937v7.758h3.264v1.008zm4.742 0v-1.008h7.459v1.008zm8 0v-1.008h7.459v1.008zm8 0v-1.008h7.459v1.008zm8 0v-1.008h7.459v1.008zm8 0v-1.008h7.459v1.008zm8 0v-1.008h7.459v1.008zm8 0v-1.008h7.459v1.008zm8 0v-1.008h7.459v1.008zm8 0v-1.008h7.459v1.008zm8 0v-1.008h7.459v1.008zm8 0v-1.008h7.459v1.008zm8 0v-1.008h7.459v1.008zm8 0v-1.008h7.459v1.008zm8 0v-1.008h7.459v1.008zm8 0v-1.008h7.459v1.008zm8 0v-1.008h7.459v1.008zm8 0v-1.008h7.459v1.008zm8 0v-1.008h3.258v-7.758h.937v8.766zM79.36 126.62l7.46-15.293h1.042l-7.459 15.293z"/><path d="M379.14 126.621v-15.293h.938v15.293zm144 0v-15.293h.938v15.293zm272 0v-15.293h.938v15.293zm144 0v-15.293h.938v15.293zm-851.779-14l7.46-15.293h1.042l-7.459 15.293z"/><path d="M379.14 112.621V97.328h.938v15.293zm144 0V97.328h.938v15.293zm272 0V97.328h.938v15.293zm144 0V97.328h.938v15.293zM30.47 94.28q-.475.44-1.07.665-.594.226-1.286.226-1.664 0-2.59-1.192-.925-1.193-.925-3.343 0-2.145.937-3.343.938-1.198 2.608-1.198.55 0 1.054.155t.973.472v1.213q-.475-.452-.973-.665-.498-.214-1.054-.214-1.155 0-1.732.893-.577.894-.577 2.687 0 1.822.56 2.698.56.876 1.72.876.392 0 .688-.09.296-.092.536-.285v-2.35h-1.272v-.972h2.403zm3.383-5.818h2.76v5.701h2.138V95h-5.355v-.838h2.138V89.3h-1.681zm1.681-2.549h1.078v1.36h-1.078zm8.065.662v1.864h2.449v.837h-2.45v3.563q0 .726.276 1.014.275.287.961.287h1.213V95h-1.318q-1.213 0-1.711-.486-.498-.487-.498-1.676v-3.563h-1.752v-.838h1.752v-1.863zm5.205-.322h1.19v3.352h3.24v-3.352h1.189V95h-1.19v-4.4h-3.24V95h-1.19zm8.34 6.264v-4.067h1.078v4.067q0 .884.313 1.3.314.416.97.416.762 0 1.166-.536.404-.536.404-1.538V88.45h1.084V95h-1.084v-.984q-.287.568-.782.861-.495.293-1.157.293-1.008 0-1.5-.66-.492-.658-.492-1.994zm12.236-.791q0-1.254-.399-1.893-.398-.639-1.177-.639-.785 0-1.19.642-.404.642-.404 1.89 0 1.242.404 1.886.405.645 1.19.645.779 0 1.177-.639.399-.638.399-1.892zm-3.17-2.45q.258-.48.712-.738.454-.258 1.052-.258 1.183 0 1.863.911.68.912.68 2.511 0 1.623-.683 2.546-.683.923-1.872.923-.586 0-1.034-.255-.448-.255-.718-.741V95h-1.078v-9.117h1.078zM95.883 98V85.766h.926V98zm8.152-6.117l7.154-3.574v7.148zm7.848.21v-1.007h7.459v1.008zm8 0v-1.007h7.459v1.008zm8 0v-1.007h7.459v1.008zm8 0v-1.007h7.459v1.008zm8 0v-1.007h7.459v1.008zm8 0v-1.007h7.459v1.008zm8 0v-1.007h7.459v1.008zm8 0v-1.007h7.459v1.008zm8 0v-1.007h7.459v1.008zm11.715-5.519v1.864h2.449v.837h-2.45v3.563q0 .726.276 1.014.275.287.961.287h1.213V95h-1.318q-1.213 0-1.711-.486-.498-.487-.498-1.676v-3.563h-1.752v-.838h1.752v-1.863zm8.011 2.62q-.82 0-1.242.638-.422.639-.422 1.893 0 1.248.422 1.89.422.64 1.242.64.827 0 1.248-.64.422-.642.422-1.89 0-1.254-.422-1.893-.421-.639-1.248-.639zm0-.915q1.366 0 2.09.885.723.885.723 2.56 0 1.682-.72 2.564-.722.882-2.093.882-1.365 0-2.086-.882-.72-.882-.72-2.563 0-1.676.72-2.56.721-.886 2.086-.886zm5.774-2.396h1.113v5.28l2.83-2.725h1.313l-2.584 2.472 2.988 4.09h-1.318l-2.426-3.387-.803.756V95h-1.113zm13.18 5.297v.527h-4.67v.035q-.047 1.342.512 1.928.56.586 1.58.586.515 0 1.077-.164.563-.164 1.202-.498v1.072q-.616.252-1.187.378-.571.126-1.104.126-1.53 0-2.391-.917t-.861-2.528q0-1.57.843-2.508.844-.938 2.25-.938 1.254 0 1.978.85t.77 2.05zm-1.079-.317q-.07-.68-.495-1.175t-1.221-.495q-.78 0-1.284.516t-.55 1.16zm8.674.07V95h-1.084v-4.066q0-.885-.31-1.301-.31-.416-.973-.416-.756 0-1.163.536-.407.536-.407 1.538V95h-1.078v-6.563h1.078v.985q.287-.563.779-.853.492-.29 1.166-.29 1.002 0 1.497.66.495.659.495 1.995zm10.985 1.583v-4.067h1.078v4.067q0 .884.313 1.3.314.416.97.416.762 0 1.166-.536.404-.536.404-1.538V88.45h1.084V95h-1.084v-.984q-.287.568-.782.861-.495.293-1.157.293-1.008 0-1.5-.66-.492-.658-.492-1.994zm12.558-3.85v1.055q-.463-.27-.931-.405-.47-.134-.956-.134-.732 0-1.092.237-.36.237-.36.724 0 .439.269.656.27.217 1.342.422l.433.082q.803.152 1.216.61.413.456.413 1.189 0 .972-.691 1.52-.692.548-1.922.548-.486 0-1.02-.103-.533-.102-1.154-.307v-1.114q.604.311 1.154.466.551.156 1.043.156.715 0 1.108-.29.392-.29.392-.812 0-.75-1.435-1.037l-.047-.012-.404-.082q-.932-.181-1.36-.612-.428-.43-.428-1.175 0-.943.64-1.456.638-.513 1.821-.513.528 0 1.014.097t.955.29zm4.15-.205h2.76v5.701h2.139V95h-5.355v-.838h2.138V89.3h-1.681zm1.682-2.549h1.078v1.36h-1.078zm10.625 5.022V95h-1.084v-4.066q0-.885-.31-1.301-.31-.416-.973-.416-.756 0-1.163.536-.407.536-.407 1.538V95h-1.078v-6.563h1.078v.985q.287-.563.779-.853.492-.29 1.166-.29 1.002 0 1.497.66.495.659.495 1.995zm6.87.732q0-1.213-.396-1.843-.396-.63-1.152-.63-.79 0-1.207.63-.416.63-.416 1.843t.42 1.849q.418.635 1.215.635.744 0 1.14-.638.395-.639.395-1.846zm1.077 2.912q0 1.477-.697 2.238-.697.762-2.05.762-.446 0-.932-.082-.487-.082-.973-.24v-1.067q.574.27 1.043.399t.861.129q.873 0 1.272-.475.398-.474.398-1.506v-.779q-.257.55-.703.82-.445.27-1.084.27-1.148 0-1.834-.92-.685-.92-.685-2.461 0-1.547.685-2.467.686-.92 1.834-.92.633 0 1.072.252.44.252.715.78v-.85h1.078zm12.233-7.353v3.287h1.371q.82 0 1.28-.434.46-.433.46-1.213t-.457-1.21q-.457-.43-1.283-.43zm-1.184-.973h2.555q1.465 0 2.22.665.757.665.757 1.948 0 1.295-.753 1.957-.753.662-2.224.662h-1.371V95h-1.184zm10.455 1.043l-1.248 4.476h2.496zm-.714-1.043h1.435L295.008 95h-1.225l-.644-2.28h-3.065l-.633 2.28h-1.224zm5.38 0h6.674v.996h-2.736V95h-1.19v-7.752h-2.748zm7.608 5.842v-1.008h7.459v1.008zm8 0v-1.008h7.459v1.008zm8 0v-1.008h7.459v1.008zm8 0v-1.008h7.459v1.008zm8 0v-1.008h7.459v1.008zm8 0v-1.008h7.459v1.008zm8 0v-1.008h7.459v1.008zm8 0v-1.008h7.459v1.008zm8 0v-1.008h7.459v1.008z"/><path d="M379.14 98.621V83.328h.938v15.293zm39.198-11.396v3.287h1.371q.82 0 1.28-.434.46-.433.46-1.213t-.457-1.21q-.457-.43-1.283-.43zm-1.184-.973h2.555q1.465 0 2.22.665.757.665.757 1.948 0 1.295-.753 1.957-.753.662-2.224.662h-1.371V95h-1.184zm10.455 1.043l-1.248 4.476h2.496zm-.714-1.043h1.435L431.008 95h-1.225l-.644-2.28h-3.065l-.633 2.28h-1.224zm5.38 0h6.674v.996h-2.736V95h-1.19v-7.752h-2.748zm17.922 7.922v3.322h-1.084v-9.058h1.084v.837q.27-.486.718-.74.448-.256 1.034-.256 1.19 0 1.866.92.677.92.677 2.549 0 1.6-.68 2.51-.68.912-1.863.912-.597 0-1.046-.255-.448-.255-.706-.741zm3.164-2.45q0-1.253-.395-1.892-.396-.639-1.175-.639-.785 0-1.19.642-.404.642-.404 1.89 0 1.242.405 1.886.404.645 1.189.645.78 0 1.175-.639.395-.638.395-1.892zm9.407-1.933q-.346-.27-.704-.393-.357-.123-.785-.123-1.008 0-1.54.633-.534.633-.534 1.828V95h-1.084v-6.563h1.084v1.284q.27-.698.83-1.07.559-.372 1.326-.372.399 0 .744.1.346.1.663.31zm4.841-.598q-.82 0-1.242.639-.422.639-.422 1.893 0 1.248.422 1.89.422.64 1.242.64.827 0 1.248-.64.422-.642.422-1.89 0-1.254-.422-1.893-.421-.639-1.248-.639zm0-.914q1.366 0 2.09.885.723.885.723 2.56 0 1.682-.72 2.564-.722.882-2.093.882-1.365 0-2.086-.882-.72-.882-.72-2.563 0-1.676.72-2.56.721-.886 2.086-.886zm10.942.159l-2.35 3.14L478.78 95h-1.248l-1.922-2.63-1.916 2.63h-1.248l2.578-3.422-2.35-3.14h1.196l1.74 2.373 1.729-2.374zm6.476 4.453q-.27.685-.685 1.804-.58 1.547-.78 1.887-.269.457-.673.686-.405.228-.944.228h-.867v-.902h.639q.474 0 .744-.276.27-.275.685-1.423l-2.537-6.457h1.143l1.945 5.132 1.916-5.132h1.143zm38.114 5.73V83.328h.937v15.293zm4.894-6.738l7.154-3.574v7.148zm7.848.21v-1.007h7.459v1.008zm8 0v-1.007h7.459v1.008zm8 0v-1.007h7.459v1.008zm8 0v-1.007h7.459v1.008zm8 0v-1.007h7.459v1.008zm8 0v-1.007h7.459v1.008zm14.885-2.302q-.346-.27-.704-.393-.357-.123-.785-.123-1.008 0-1.54.633-.534.633-.534 1.828V95h-1.084v-6.563h1.084v1.284q.27-.698.83-1.07.559-.372 1.326-.372.399 0 .744.1.346.1.663.31zm7.794 1.389v.527h-4.67v.035q-.046 1.342.513 1.928.56.586 1.58.586.515 0 1.077-.164.563-.164 1.202-.498v1.072q-.616.252-1.187.378-.571.126-1.104.126-1.53 0-2.391-.917t-.861-2.528q0-1.57.843-2.508.844-.938 2.25-.938 1.254 0 1.978.85t.77 2.05zm-1.078-.317q-.07-.68-.495-1.175t-1.221-.495q-.78 0-1.284.516t-.55 1.16zm7.543.803q0-1.213-.395-1.843-.396-.63-1.152-.63-.79 0-1.207.63-.416.63-.416 1.843t.42 1.849q.418.635 1.215.635.744 0 1.14-.638.395-.639.395-1.846zm1.078 2.912q0 1.477-.697 2.238-.697.762-2.05.762-.446 0-.932-.082-.487-.082-.973-.24v-1.067q.574.27 1.043.399t.861.129q.873 0 1.272-.475.398-.474.398-1.506v-.779q-.257.55-.703.82-.445.27-1.084.27-1.148 0-1.834-.92-.685-.92-.685-2.461 0-1.547.685-2.467.686-.92 1.834-.92.633 0 1.072.252.44.252.715.78v-.85h1.078zm3.747-6.117h2.76v5.701h2.138V95h-5.355v-.838h2.138V89.3h-1.681zm1.681-2.549h1.078v1.36h-1.078zm10.168 2.754v1.055q-.463-.27-.931-.405-.47-.134-.956-.134-.732 0-1.092.237-.36.237-.36.724 0 .439.269.656.27.217 1.342.422l.433.082q.803.152 1.216.61.413.456.413 1.189 0 .972-.691 1.52-.692.548-1.922.548-.486 0-1.02-.103-.533-.102-1.154-.307v-1.114q.604.311 1.154.466.551.156 1.043.156.715 0 1.108-.29.392-.29.392-.812 0-.75-1.435-1.037l-.047-.012-.404-.082q-.932-.181-1.36-.612-.428-.43-.428-1.175 0-.943.64-1.456.638-.513 1.821-.513.528 0 1.014.097t.955.29zm5.897-2.092v1.864h2.449v.837h-2.45v3.563q0 .726.276 1.014.275.287.961.287h1.213V95h-1.318q-1.213 0-1.711-.486-.498-.487-.498-1.676v-3.563h-1.752v-.838h1.752v-1.863zm11.17 3.217q-.346-.27-.704-.393-.357-.123-.785-.123-1.008 0-1.54.633-.534.633-.534 1.828V95h-1.084v-6.563h1.084v1.284q.27-.698.83-1.07.559-.372 1.326-.372.399 0 .744.1.346.1.663.31zm5.345 1.91h-.357q-.943 0-1.421.331-.478.331-.478.988 0 .591.358.92.357.328.99.328.89 0 1.4-.619.51-.618.516-1.708v-.24zm2.092-.445V95h-1.084v-.973q-.346.586-.87.865-.524.278-1.274.278-1.002 0-1.6-.566-.598-.565-.598-1.514 0-1.096.736-1.664.735-.569 2.159-.569h1.447v-.17q-.006-.785-.398-1.14-.393-.354-1.254-.354-.551 0-1.114.159-.562.158-1.095.462v-1.078q.597-.228 1.145-.342.548-.115 1.064-.115.814 0 1.391.24.577.24.935.721.223.293.316.724.094.43.094 1.292zm5.393-4.682v1.864h2.449v.837h-2.45v3.563q0 .726.276 1.014.275.287.961.287h1.213V95h-1.318q-1.213 0-1.711-.486-.498-.487-.498-1.676v-3.563h-1.752v-.838h1.752v-1.863zm6.254 1.887h2.76v5.701h2.138V95h-5.355v-.838h2.138V89.3h-1.681zm1.681-2.549h1.078v1.36h-1.078zm8.076 3.281q-.82 0-1.242.639-.422.639-.422 1.893 0 1.248.422 1.89.422.64 1.242.64.827 0 1.248-.64.422-.642.422-1.89 0-1.254-.422-1.893-.421-.639-1.248-.639zm0-.914q1.366 0 2.09.885.723.885.723 2.56 0 1.682-.72 2.564-.722.882-2.093.882-1.365 0-2.086-.882-.72-.882-.72-2.563 0-1.676.72-2.56.721-.886 2.086-.886zm10.55 2.655V95h-1.085v-4.066q0-.885-.31-1.301-.31-.416-.973-.416-.756 0-1.163.536-.407.536-.407 1.538V95h-1.078v-6.563h1.078v.985q.287-.563.779-.853.492-.29 1.166-.29 1.002 0 1.497.66.495.659.495 1.995zm13.439-4.36v1.864h2.449v.837h-2.45v3.563q0 .726.276 1.014.275.287.961.287h1.213V95h-1.318q-1.213 0-1.711-.486-.498-.487-.498-1.676v-3.563h-1.752v-.838h1.752v-1.863zm8.011 2.62q-.82 0-1.242.638-.422.639-.422 1.893 0 1.248.422 1.89.422.64 1.242.64.827 0 1.248-.64.422-.642.422-1.89 0-1.254-.422-1.893-.421-.639-1.248-.639zm0-.915q1.366 0 2.09.885.723.885.723 2.56 0 1.682-.72 2.564-.722.882-2.093.882-1.365 0-2.086-.882-.72-.882-.72-2.563 0-1.676.72-2.56.721-.886 2.086-.886zm5.774-2.396h1.113v5.28l2.83-2.725h1.313l-2.584 2.472 2.988 4.09h-1.318l-2.426-3.387-.803.756V95h-1.113zm13.18 5.297v.527h-4.67v.035q-.047 1.342.512 1.928.56.586 1.58.586.515 0 1.077-.164.563-.164 1.202-.498v1.072q-.616.252-1.187.378-.571.126-1.104.126-1.53 0-2.391-.917t-.861-2.528q0-1.57.843-2.508.844-.938 2.25-.938 1.254 0 1.978.85t.77 2.05zm-1.079-.317q-.07-.68-.495-1.175t-1.221-.495q-.78 0-1.284.516t-.55 1.16zm8.674.07V95h-1.084v-4.066q0-.885-.31-1.301-.31-.416-.973-.416-.756 0-1.163.536-.407.536-.407 1.538V95h-1.078v-6.563h1.078v.985q.287-.563.779-.853.492-.29 1.166-.29 1.002 0 1.497.66.495.659.495 1.995zm1.725 1.16v-1.007h7.459v1.008zm8 0v-1.007h7.459v1.008zm8 0v-1.007h7.459v1.008zm8 0v-1.007h7.459v1.008zm8 0v-1.007h7.459v1.008zm8 0v-1.007h7.459v1.008zm8 0v-1.007h7.459v1.008zm8 0v-1.007h7.459v1.008zm11.258 6.528V83.328h.937v15.293zm51.627-8.83q-.346-.27-.704-.393-.357-.123-.785-.123-1.008 0-1.54.633-.534.633-.534 1.828V95h-1.084v-6.563h1.084v1.284q.27-.698.83-1.07.559-.372 1.326-.372.399 0 .744.1.346.1.663.31zm2.375 2.725v-4.067h1.078v4.067q0 .884.313 1.3.314.416.97.416.762 0 1.166-.536.404-.536.404-1.538V88.45h1.084V95h-1.084v-.984q-.287.568-.782.861-.495.293-1.157.293-1.008 0-1.5-.66-.492-.658-.492-1.994zm13.015-1.582V95h-1.084v-4.066q0-.885-.31-1.301-.31-.416-.973-.416-.756 0-1.163.536-.407.536-.407 1.538V95h-1.078v-6.563h1.078v.985q.287-.563.779-.853.492-.29 1.166-.29 1.002 0 1.497.66.495.659.495 1.995zm8 0V95h-1.084v-4.066q0-.885-.31-1.301-.31-.416-.973-.416-.756 0-1.163.536-.407.536-.407 1.538V95h-1.078v-6.563h1.078v.985q.287-.563.779-.853.492-.29 1.166-.29 1.002 0 1.497.66.495.659.495 1.995zm8.404.246v.527h-4.67v.035q-.046 1.342.513 1.928.56.586 1.58.586.515 0 1.077-.164.563-.164 1.202-.498v1.072q-.616.252-1.187.378-.571.126-1.104.126-1.53 0-2.391-.917t-.861-2.528q0-1.57.843-2.508.844-.938 2.25-.938 1.254 0 1.978.85t.77 2.05zm-1.078-.317q-.07-.68-.495-1.175t-1.221-.495q-.78 0-1.284.516t-.55 1.16zm9.284-1.072q-.346-.27-.704-.393-.357-.123-.785-.123-1.008 0-1.54.633-.534.633-.534 1.828V95h-1.084v-6.563h1.084v1.284q.27-.698.83-1.07.559-.372 1.326-.372.399 0 .744.1.346.1.663.31zm52.373 8.83V83.328h.937v15.293zm-931.78-14l7.46-15.293h1.042L8.404 84.621zm88.502 0H94.82l-7.459-15.293h1.043zm52.684-8.303q.861.229 1.318.812.457.583.457 1.456 0 1.207-.811 1.895-.812.689-2.247.689-.604 0-1.23-.111-.628-.112-1.231-.323V79.56q.597.31 1.177.462.58.153 1.155.153.972 0 1.494-.44.521-.44.521-1.265 0-.762-.521-1.21-.522-.448-1.412-.448h-.903v-.973h.903q.814 0 1.271-.358.457-.357.457-.996 0-.673-.424-1.034-.425-.36-1.21-.36-.522 0-1.079.117-.556.117-1.166.352v-1.09q.71-.188 1.263-.281.554-.094.982-.094 1.277 0 2.042.641.764.642.764 1.703 0 .72-.401 1.2-.402.481-1.17.68zm5.732 2.315h2.063V81h-2.063zm20.19 1.646q-.475.44-1.07.665-.594.226-1.286.226-1.664 0-2.59-1.192-.925-1.193-.925-3.343 0-2.145.937-3.343.938-1.198 2.608-1.198.55 0 1.054.155t.973.472v1.213q-.475-.452-.973-.665-.498-.214-1.054-.214-1.155 0-1.732.893-.577.894-.577 2.687 0 1.822.56 2.698.56.876 1.72.876.392 0 .688-.09.296-.092.536-.285v-2.35h-1.272v-.972h2.403zm8.094-3.1v.528h-4.67v.035q-.047 1.342.512 1.928.56.586 1.58.586.515 0 1.077-.164.563-.164 1.202-.498v1.072q-.616.252-1.187.378-.571.126-1.104.126-1.53 0-2.391-.917t-.861-2.528q0-1.57.843-2.508.844-.938 2.25-.938 1.254 0 1.978.85t.77 2.05zm-1.079-.316q-.07-.68-.495-1.175t-1.221-.495q-.78 0-1.284.516t-.55 1.16zm8.674.07V81h-1.084v-4.066q0-.885-.31-1.301-.31-.416-.973-.416-.756 0-1.163.536-.407.536-.407 1.538V81h-1.078v-6.563h1.078v.985q.287-.563.779-.853.492-.29 1.166-.29 1.002 0 1.497.66.495.659.495 1.995zm8.405.247v.527h-4.67v.035q-.047 1.342.512 1.928.56.586 1.58.586.515 0 1.077-.164.563-.164 1.202-.498v1.072q-.616.252-1.187.378-.571.126-1.104.126-1.53 0-2.391-.917t-.861-2.528q0-1.57.843-2.508.844-.938 2.25-.938 1.254 0 1.978.85t.77 2.05zm-1.079-.317q-.07-.68-.495-1.175t-1.221-.495q-.78 0-1.284.516t-.55 1.16zm9.284-1.072q-.346-.27-.704-.393-.357-.123-.785-.123-1.008 0-1.54.633-.534.633-.534 1.828V81h-1.084v-6.563h1.084v1.284q.27-.698.83-1.07.559-.372 1.326-.372.399 0 .744.1.346.1.663.31zm5.345 1.91h-.357q-.944 0-1.421.331-.478.331-.478.988 0 .591.358.92.357.328.99.328.89 0 1.4-.619.51-.618.516-1.708v-.24zm2.092-.445V81h-1.084v-.973q-.346.586-.87.865-.524.278-1.274.278-1.002 0-1.6-.566-.598-.565-.598-1.514 0-1.096.736-1.664.735-.569 2.159-.569h1.447v-.17q-.006-.785-.398-1.14-.393-.354-1.254-.354-.551 0-1.114.159-.562.158-1.095.462v-1.078q.597-.228 1.145-.342.548-.115 1.064-.115.814 0 1.391.24.577.24.935.721.223.293.316.724.094.43.094 1.292zm5.393-4.682v1.864h2.449v.837h-2.45v3.563q0 .726.276 1.014.275.287.961.287h1.213V81h-1.318q-1.213 0-1.711-.486-.498-.487-.498-1.676v-3.563h-1.752v-.838h1.752v-1.863zm10.964 4.606v.527h-4.67v.035q-.046 1.342.513 1.928.56.586 1.58.586.515 0 1.077-.164.563-.164 1.202-.498v1.072q-.616.252-1.187.378-.571.126-1.104.126-1.53 0-2.391-.917t-.861-2.528q0-1.57.843-2.508.844-.938 2.25-.938 1.254 0 1.978.85t.77 2.05zm-1.078-.317q-.07-.68-.495-1.175t-1.221-.495q-.78 0-1.284.516t-.55 1.16zm17.284-1.072q-.346-.27-.704-.393-.357-.123-.785-.123-1.008 0-1.54.633-.534.633-.534 1.828V81h-1.084v-6.563h1.084v1.284q.27-.698.83-1.07.559-.372 1.326-.372.399 0 .744.1.346.1.663.31zm7.794 1.389v.527h-4.67v.035q-.046 1.342.513 1.928.56.586 1.58.586.515 0 1.077-.164.563-.164 1.202-.498v1.072q-.616.252-1.187.378-.571.126-1.104.126-1.53 0-2.391-.917t-.861-2.528q0-1.57.843-2.508.844-.938 2.25-.938 1.254 0 1.978.85t.77 2.05zm-1.078-.317q-.07-.68-.495-1.175t-1.221-.495q-.78 0-1.284.516t-.55 1.16zm7.543.803q0-1.213-.395-1.843-.396-.63-1.152-.63-.79 0-1.207.63-.416.63-.416 1.843t.42 1.849q.418.635 1.215.635.744 0 1.14-.638.395-.639.395-1.846zm1.078 2.912q0 1.477-.697 2.238-.697.762-2.05.762-.446 0-.932-.082-.487-.082-.973-.24v-1.067q.574.27 1.043.399t.861.129q.873 0 1.272-.475.398-.474.398-1.506v-.779q-.257.55-.703.82-.445.27-1.084.27-1.148 0-1.834-.92-.685-.92-.685-2.461 0-1.547.685-2.467.686-.92 1.834-.92.633 0 1.072.252.44.252.715.78v-.85h1.078zm3.747-6.117h2.76v5.701h2.138V81h-5.355v-.838h2.138V75.3h-1.681zm1.681-2.549h1.078v1.36h-1.078zm10.168 2.754v1.055q-.463-.27-.931-.405-.47-.134-.956-.134-.732 0-1.092.237-.36.237-.36.724 0 .439.269.656.27.217 1.342.422l.433.082q.803.152 1.216.61.413.456.413 1.189 0 .972-.691 1.52-.692.548-1.922.548-.486 0-1.02-.103-.533-.102-1.154-.307v-1.114q.604.311 1.154.466.551.156 1.043.156.715 0 1.108-.29.392-.29.392-.812 0-.75-1.435-1.037l-.047-.012-.404-.082q-.932-.181-1.36-.612-.428-.43-.428-1.175 0-.943.64-1.456.638-.513 1.821-.513.528 0 1.014.097t.955.29zm5.897-2.092v1.864h2.449v.837h-2.45v3.563q0 .726.276 1.014.275.287.961.287h1.213V81h-1.318q-1.213 0-1.711-.486-.498-.487-.498-1.676v-3.563h-1.752v-.838h1.752v-1.863zm11.17 3.217q-.346-.27-.704-.393-.357-.123-.785-.123-1.008 0-1.54.633-.534.633-.534 1.828V81h-1.084v-6.563h1.084v1.284q.27-.698.83-1.07.559-.372 1.326-.372.399 0 .744.1.346.1.663.31zm5.345 1.91h-.357q-.943 0-1.421.331-.478.331-.478.988 0 .591.358.92.357.328.99.328.89 0 1.4-.619.51-.618.516-1.708v-.24zm2.092-.445V81h-1.084v-.973q-.346.586-.87.865-.524.278-1.274.278-1.002 0-1.6-.566-.598-.565-.598-1.514 0-1.096.736-1.664.735-.569 2.159-.569h1.447v-.17q-.006-.785-.398-1.14-.393-.354-1.254-.354-.551 0-1.114.159-.562.158-1.095.462v-1.078q.597-.228 1.145-.342.548-.115 1.064-.115.814 0 1.391.24.577.24.935.721.223.293.316.724.094.43.094 1.292zm5.393-4.682v1.864h2.449v.837h-2.45v3.563q0 .726.276 1.014.275.287.961.287h1.213V81h-1.318q-1.213 0-1.711-.486-.498-.487-.498-1.676v-3.563h-1.752v-.838h1.752v-1.863zm6.254 1.887h2.76v5.701h2.138V81h-5.355v-.838h2.138V75.3h-1.681zm1.681-2.549h1.078v1.36h-1.078zm8.076 3.281q-.82 0-1.242.639-.422.639-.422 1.893 0 1.248.422 1.89.422.64 1.242.64.827 0 1.248-.64.422-.642.422-1.89 0-1.254-.422-1.893-.421-.639-1.248-.639zm0-.914q1.366 0 2.09.885.723.885.723 2.56 0 1.682-.72 2.564-.722.882-2.093.882-1.365 0-2.086-.882-.72-.882-.72-2.563 0-1.676.72-2.56.721-.886 2.086-.886zm10.55 2.655V81h-1.085v-4.066q0-.885-.31-1.301-.31-.416-.973-.416-.756 0-1.163.536-.407.536-.407 1.538V81h-1.078v-6.563h1.078v.985q.287-.563.779-.853.492-.29 1.166-.29 1.002 0 1.497.66.495.659.495 1.995z"/><path d="M379.14 84.621V69.328h.938v15.293zm144 0V69.328h.938v15.293zm94.442-4.611h1.84V73.4l-2.203 1.06v-1.136l2.191-1.043h1.184v7.729h1.816V81h-4.828zm8.697-1.377h2.063V81h-2.063zm17.33-5.338l-1.248 4.476h2.496zm-.714-1.043h1.435L647.008 81h-1.225l-.644-2.28h-3.065l-.633 2.28h-1.224zm10.806 2.414v1.055q-.463-.27-.931-.405-.47-.134-.956-.134-.732 0-1.092.237-.36.237-.36.724 0 .439.269.656.27.217 1.342.422l.433.082q.803.152 1.216.61.413.456.413 1.189 0 .972-.691 1.52-.692.548-1.922.548-.486 0-1.02-.103-.533-.102-1.154-.307v-1.114q.604.311 1.154.466.551.156 1.043.156.715 0 1.108-.29.392-.29.392-.812 0-.75-1.435-1.037l-.047-.012-.404-.082q-.932-.181-1.36-.612-.428-.43-.428-1.175 0-.943.64-1.456.638-.513 1.821-.513.528 0 1.014.097t.955.29zm3.682-2.783h1.113v5.28l2.83-2.725h1.313l-2.584 2.472 2.988 4.09h-1.318l-2.426-3.387-.803.756V81h-1.113zm20.846 0v.896h-1.225q-.58 0-.806.238-.225.237-.225.84v.58h2.256v.838h-2.256V81h-1.078v-5.725h-1.752v-.838h1.752v-.457q0-1.078.495-1.587.495-.51 1.544-.51zm5.38 3.31q-.82 0-1.242.639-.422.639-.422 1.893 0 1.248.422 1.89.422.64 1.242.64.827 0 1.248-.64.422-.642.422-1.89 0-1.254-.422-1.893-.421-.639-1.248-.639zm0-.914q1.366 0 2.09.885.723.885.723 2.56 0 1.682-.72 2.564-.722.882-2.093.882-1.365 0-2.086-.882-.72-.882-.72-2.563 0-1.676.72-2.56.721-.886 2.086-.886zm11.159 1.512q-.346-.27-.704-.393-.357-.123-.785-.123-1.008 0-1.54.633-.534.633-.534 1.828V81h-1.084v-6.563h1.084v1.284q.27-.698.83-1.07.559-.372 1.326-.372.399 0 .744.1.346.1.663.31zm100.373 8.83V69.328h.937v15.293zm34.789-12.07v1.201q-.54-.346-1.081-.522-.542-.175-1.093-.175-.838 0-1.324.39-.487.389-.487 1.051 0 .58.32.885.319.305 1.192.51l.621.14q1.23.287 1.793.903.563.615.563 1.675 0 1.248-.774 1.905-.773.656-2.25.656-.615 0-1.236-.132t-1.248-.395v-1.26q.674.428 1.274.627t1.21.199q.897 0 1.395-.401.498-.402.498-1.122 0-.657-.343-1.002-.343-.346-1.192-.534l-.633-.146q-1.219-.275-1.77-.832-.55-.557-.55-1.494 0-1.172.788-1.878t2.094-.706q.504 0 1.06.114.557.114 1.173.343zm8.633 4.629v.527h-4.67v.035q-.047 1.342.512 1.928.56.586 1.58.586.515 0 1.077-.164.563-.164 1.202-.498v1.072q-.616.252-1.187.378-.571.126-1.104.126-1.53 0-2.391-.917t-.861-2.528q0-1.57.843-2.508.844-.938 2.25-.938 1.254 0 1.978.85t.77 2.05zm-1.079-.317q-.07-.68-.495-1.175t-1.221-.495q-.78 0-1.284.516t-.55 1.16zm6.729 1.764q0 .727.266 1.096.267.369.789.369h1.26V81h-1.366q-.967 0-1.497-.618-.53-.618-.53-1.755v-5.936h-1.729v-.843h2.807zm10.016-6.744v.896h-1.225q-.58 0-.806.238-.225.237-.225.84v.58h2.256v.838h-2.256V81h-1.078v-5.725h-1.752v-.838h1.752v-.457q0-1.078.495-1.587.495-.51 1.544-.51zm2.369 4.875h6.21v.99h-6.21zm13.56.176V81h-1.084v-4.066q0-.885-.31-1.301-.31-.416-.973-.416-.756 0-1.163.536-.407.536-.407 1.538V81h-1.078v-9.117h1.078v3.539q.287-.563.779-.853.492-.29 1.166-.29 1.002 0 1.497.66.495.659.495 1.995zm5.451-1.74q-.82 0-1.242.638-.422.639-.422 1.893 0 1.248.422 1.89.422.64 1.242.64.827 0 1.248-.64.422-.642.422-1.89 0-1.254-.422-1.893-.421-.639-1.248-.639zm0-.915q1.366 0 2.09.885.723.885.723 2.56 0 1.682-.72 2.564-.722.882-2.093.882-1.365 0-2.086-.882-.72-.882-.72-2.563 0-1.676.72-2.56.721-.886 2.086-.886zm10.092.387v1.055q-.463-.27-.931-.405-.47-.134-.956-.134-.732 0-1.092.237-.36.237-.36.724 0 .439.269.656.27.217 1.342.422l.433.082q.803.152 1.216.61.413.456.413 1.189 0 .972-.691 1.52-.692.548-1.922.548-.486 0-1.02-.103-.533-.102-1.154-.307v-1.114q.604.311 1.154.466.551.156 1.043.156.715 0 1.108-.29.392-.29.392-.812 0-.75-1.435-1.037l-.047-.012-.404-.082q-.932-.181-1.36-.612-.428-.43-.428-1.175 0-.943.64-1.456.638-.513 1.821-.513.528 0 1.014.097t.955.29zm5.897-2.092v1.864h2.449v.837h-2.45v3.563q0 .726.276 1.014.275.287.961.287h1.213V81h-1.318q-1.213 0-1.711-.486-.498-.487-.498-1.676v-3.563h-1.752v-.838h1.752v-1.863zm10.965 4.606v.527h-4.67v.035q-.047 1.342.512 1.928.56.586 1.58.586.515 0 1.077-.164.563-.164 1.202-.498v1.072q-.616.252-1.187.378-.571.126-1.104.126-1.53 0-2.391-.917t-.861-2.528q0-1.57.843-2.508.844-.938 2.25-.938 1.254 0 1.978.85t.77 2.05zm-1.079-.317q-.07-.68-.495-1.175t-1.221-.495q-.78 0-1.284.516t-.55 1.16zm7.543-1.588v-3.392h1.078V81h-1.078v-.826q-.27.486-.717.741-.449.255-1.035.255-1.19 0-1.872-.923-.682-.923-.682-2.546 0-1.6.685-2.51.686-.912 1.87-.912.591 0 1.042.255.452.255.71.741zm-3.17 2.45q0 1.254.399 1.892.398.639 1.178.639.779 0 1.186-.645.407-.644.407-1.886 0-1.248-.407-1.89-.407-.642-1.186-.642-.78 0-1.178.639-.399.639-.399 1.893zm33.284 6.896V69.328h.937v15.293zm-923.78-14l7.46-15.293h1.042l-7.459 15.293zm72.502 0H86.82l-7.459-15.293h1.043z"/><path d="M379.14 70.621V55.328h.938v15.293zm144 0V55.328h.938v15.293zm272 0V55.328h.938v15.293zm144 0V55.328h.938v15.293zm-915.779-14l7.46-15.293h1.042l-7.459 15.293zm56.502 0H78.82l-7.459-15.293h1.043z"/><path d="M379.14 56.621v-7.535h4.202v1.008h-3.264v6.527zm4.743-6.527v-1.008h7.459v1.008zm8 0v-1.008h7.459v1.008zm8 0v-1.008h7.459v1.008zm8 0v-1.008h7.459v1.008zm8 0v-1.008h7.459v1.008zm8 0v-1.008h7.459v1.008zm8 0v-1.008h7.459v1.008zm8 0v-1.008h7.459v1.008zm8 0v-1.008h7.459v1.008zm8 0v-1.008h7.459v1.008zm8 0v-1.008h7.459v1.008zm8 0v-1.008h7.459v1.008zm8 0v-1.008h7.459v1.008zm8 0v-1.008h7.459v1.008zm8 0v-1.008h7.459v1.008zm8 0v-1.008h7.459v1.008zm8 0v-1.008h7.459v1.008zm11.258 6.527v-6.527h-3.258v-1.008h4.195v7.535zm272 0v-7.535h4.2v1.008h-3.263v6.527zm4.742-6.527v-1.008h7.459v1.008zm8 0v-1.008h7.459v1.008zm8 0v-1.008h7.459v1.008zm8 0v-1.008h7.459v1.008zm8 0v-1.008h7.459v1.008zm8 0v-1.008h7.459v1.008zm8 0v-1.008h7.459v1.008zm8 0v-1.008h7.459v1.008zm8 0v-1.008h7.459v1.008zm8 0v-1.008h7.459v1.008zm8 0v-1.008h7.459v1.008zm8 0v-1.008h7.459v1.008zm8 0v-1.008h7.459v1.008zm8 0v-1.008h7.459v1.008zm8 0v-1.008h7.459v1.008zm8 0v-1.008h7.459v1.008zm8 0v-1.008h7.459v1.008zm11.258 6.527v-6.527h-3.258v-1.008h4.195v7.535zm-907.78-14l7.46-15.293h1.042l-7.459 15.293zm40.502 0H70.82l-7.459-15.293h1.043zm379.278 0V27.328h.937v15.293zm416.468-3.164l-3.574-7.148h7.154zM39.361 28.621l7.46-15.293h1.042l-7.459 15.293zm24.502 0H62.82l-7.459-15.293h1.043z"/><path d="M451.14 28.621V13.328h.938v15.293zm416 0V13.328h.938v15.293zM49.442 11h-1.224l2.678-8.748h1.435L55.008 11h-1.225L51.61 3.295z"/><path d="M451.14 14.621V7.086h4.202v1.008h-3.264v6.527zm4.743-6.527V7.086h7.459v1.008zm8 0V7.086h7.459v1.008zm8 0V7.086h7.459v1.008zm8 0V7.086h7.459v1.008zm8 0V7.086h7.459v1.008zm8 0V7.086h7.459v1.008zm8 0V7.086h7.459v1.008zm8 0V7.086h7.459v1.008zm8 0V7.086h7.459v1.008zm8 0V7.086h7.459v1.008zm8 0V7.086h7.459v1.008zm8 0V7.086h7.459v1.008zm8 0V7.086h7.459v1.008zm12.424-4.764l-2.76 4.623h2.76zm-.194-1.078h1.371v5.701h1.166v.961h-1.166V11h-1.177V8.914h-3.71v-1.12zm6.166 6.38h2.063V11h-2.063zm18.174-1.763q.457.117.78.443.322.325.802 1.297l1.19 2.391h-1.272l-1.043-2.209q-.451-.943-.811-1.216-.36-.272-.94-.272h-1.132V11h-1.19V2.252h2.438q1.442 0 2.21.65.767.65.767 1.881 0 .867-.472 1.415-.471.548-1.327.671zm-2.426-3.644V6.33h1.295q.85 0 1.266-.38.416-.382.416-1.167 0-.756-.442-1.157-.443-.401-1.287-.401zm12.535 3.955v.527h-4.67v.035q-.046 1.342.513 1.928.56.586 1.58.586.515 0 1.077-.164.563-.164 1.202-.498v1.072q-.616.252-1.187.378-.571.126-1.104.126-1.53 0-2.391-.917t-.861-2.528q0-1.57.843-2.508.844-.938 2.25-.938 1.254 0 1.978.85t.77 2.05zm-1.078-.317q-.07-.68-.495-1.175t-1.221-.495q-.78 0-1.284.516t-.55 1.16zm6.114-4.289v1.864h2.449v.837h-2.45v3.563q0 .726.276 1.014.275.287.961.287h1.213V11h-1.318q-1.213 0-1.711-.486-.498-.487-.498-1.676V5.275h-1.752v-.838h1.752V2.575zm5.545 5.942V4.449h1.078v4.067q0 .884.313 1.3.314.416.97.416.762 0 1.166-.536.404-.536.404-1.538V4.45h1.084V11h-1.084v-.984q-.287.568-.782.861-.495.293-1.157.293-1.008 0-1.5-.66-.492-.658-.492-1.994zm13.625-2.725q-.346-.27-.704-.393-.357-.123-.785-.123-1.008 0-1.54.633-.534.633-.534 1.828V11h-1.084V4.437h1.084v1.284q.27-.698.83-1.07.559-.372 1.326-.372.399 0 .744.1.346.1.663.31zm7.39 1.143V11h-1.084V6.934q0-.885-.31-1.301-.31-.416-.973-.416-.756 0-1.163.536-.407.536-.407 1.538V11h-1.078V4.437h1.078v.985q.287-.563.779-.853.492-.29 1.166-.29 1.002 0 1.497.66.495.659.495 1.995zm16.61-1.143q-.346-.27-.704-.393-.357-.123-.785-.123-1.008 0-1.54.633-.534.633-.534 1.828V11h-1.084V4.437h1.084v1.284q.27-.698.83-1.07.559-.372 1.326-.372.399 0 .744.1.346.1.663.31zm7.794 1.389v.527h-4.67v.035q-.046 1.342.513 1.928.56.586 1.58.586.515 0 1.077-.164.563-.164 1.202-.498v1.072q-.616.252-1.187.378-.571.126-1.104.126-1.53 0-2.391-.917t-.861-2.528q0-1.57.843-2.508.844-.938 2.25-.938 1.254 0 1.978.85t.77 2.05zm-1.078-.317q-.07-.68-.495-1.175t-1.221-.495q-.78 0-1.284.516t-.55 1.16zm7.543.803q0-1.213-.395-1.843-.396-.63-1.152-.63-.79 0-1.207.63-.416.63-.416 1.843t.42 1.849q.418.635 1.215.635.744 0 1.14-.638.395-.639.395-1.846zm1.078 2.912q0 1.477-.697 2.238-.697.762-2.05.762-.446 0-.932-.082-.487-.082-.973-.24v-1.067q.574.27 1.043.399t.861.129q.873 0 1.272-.475.398-.474.398-1.506v-.779q-.257.55-.703.82-.445.27-1.084.27-1.148 0-1.834-.92-.685-.92-.685-2.461 0-1.547.685-2.467.686-.92 1.834-.92.633 0 1.072.252.44.252.715.78v-.85h1.078zm3.747-6.117h2.76v5.701h2.138V11h-5.355v-.838h2.138V5.3h-1.681zm1.681-2.549h1.078v1.36h-1.078zm10.168 2.754v1.055q-.463-.27-.931-.405-.47-.134-.956-.134-.732 0-1.092.237-.36.237-.36.724 0 .439.269.656.27.217 1.342.422l.433.082q.803.152 1.216.61.413.456.413 1.189 0 .972-.691 1.52-.692.548-1.922.548-.486 0-1.02-.103-.533-.102-1.154-.307V9.646q.604.311 1.154.466.551.156 1.043.156.715 0 1.108-.29.392-.29.392-.812 0-.75-1.435-1.037l-.047-.012-.404-.082q-.932-.181-1.36-.612-.428-.43-.428-1.175 0-.943.64-1.456.638-.513 1.821-.513.528 0 1.014.097t.955.29zm5.897-2.092v1.864h2.449v.837h-2.45v3.563q0 .726.276 1.014.275.287.961.287h1.213V11h-1.318q-1.213 0-1.711-.486-.498-.487-.498-1.676V5.275h-1.752v-.838h1.752V2.575zm11.17 3.217q-.346-.27-.704-.393-.357-.123-.785-.123-1.008 0-1.54.633-.534.633-.534 1.828V11h-1.084V4.437h1.084v1.284q.27-.698.83-1.07.559-.372 1.326-.372.399 0 .744.1.346.1.663.31zm5.345 1.91h-.357q-.943 0-1.421.331-.478.331-.478.988 0 .591.358.92.357.328.99.328.89 0 1.4-.619.51-.618.516-1.708v-.24zm2.092-.445V11h-1.084v-.973q-.346.586-.87.865-.524.278-1.274.278-1.002 0-1.6-.566-.598-.565-.598-1.514 0-1.096.736-1.664.735-.569 2.159-.569h1.447v-.17q-.006-.785-.398-1.14-.393-.354-1.254-.354-.551 0-1.114.159-.562.158-1.095.462V4.736q.597-.228 1.145-.342.548-.115 1.064-.115.814 0 1.391.24.577.24.935.721.223.293.316.724.094.43.094 1.292zm5.393-4.682v1.864h2.449v.837h-2.45v3.563q0 .726.276 1.014.275.287.961.287h1.213V11h-1.318q-1.213 0-1.711-.486-.498-.487-.498-1.676V5.275h-1.752v-.838h1.752V2.575zm6.254 1.887h2.76v5.701h2.138V11h-5.355v-.838h2.138V5.3h-1.681zm1.681-2.549h1.078v1.36h-1.078zm8.076 3.281q-.82 0-1.242.639-.422.639-.422 1.893 0 1.248.422 1.89.422.64 1.242.64.827 0 1.248-.64.422-.642.422-1.89 0-1.254-.422-1.893-.421-.639-1.248-.639zm0-.914q1.366 0 2.09.885.723.885.723 2.56 0 1.682-.72 2.564-.722.882-2.093.882-1.365 0-2.086-.882-.72-.882-.72-2.563 0-1.676.72-2.56.721-.886 2.086-.886zm10.55 2.655V11h-1.085V6.934q0-.885-.31-1.301-.31-.416-.973-.416-.756 0-1.163.536-.407.536-.407 1.538V11h-1.078V4.437h1.078v.985q.287-.563.779-.853.492-.29 1.166-.29 1.002 0 1.497.66.495.659.495 1.995zm13.439-4.36v1.864h2.449v.837h-2.45v3.563q0 .726.276 1.014.275.287.961.287h1.213V11h-1.318q-1.213 0-1.711-.486-.498-.487-.498-1.676V5.275h-1.752v-.838h1.752V2.575zm8.011 2.62q-.82 0-1.242.638-.422.639-.422 1.893 0 1.248.422 1.89.422.64 1.242.64.827 0 1.248-.64.422-.642.422-1.89 0-1.254-.422-1.893-.421-.639-1.248-.639zm0-.915q1.366 0 2.09.885.723.885.723 2.56 0 1.682-.72 2.564-.722.882-2.093.882-1.365 0-2.086-.882-.72-.882-.72-2.563 0-1.676.72-2.56.721-.886 2.086-.886zm5.774-2.396h1.113v5.28l2.83-2.726h1.313l-2.584 2.473 2.988 4.09h-1.318l-2.426-3.387-.803.756V11h-1.113zm13.18 5.297v.527h-4.67v.035q-.047 1.342.512 1.928.56.586 1.58.586.515 0 1.077-.164.563-.164 1.202-.498v1.072q-.616.252-1.187.378-.571.126-1.104.126-1.53 0-2.391-.917t-.861-2.528q0-1.57.843-2.508.844-.938 2.25-.938 1.254 0 1.978.85t.77 2.05zm-1.079-.317q-.07-.68-.495-1.175t-1.221-.495q-.78 0-1.284.516t-.55 1.16zm8.674.07V11h-1.084V6.934q0-.885-.31-1.301-.31-.416-.973-.416-.756 0-1.163.536-.407.536-.407 1.538V11h-1.078V4.437h1.078v.985q.287-.563.779-.853.492-.29 1.166-.29 1.002 0 1.497.66.495.659.495 1.995zm1.725 1.16V7.087h7.459v1.008zm8 0V7.087h7.459v1.008zm8 0V7.087h7.459v1.008zm8 0V7.087h7.459v1.008zm8 0V7.087h7.459v1.008zm8 0V7.087h7.459v1.008zm8 0V7.087h7.459v1.008zm8 0V7.087h7.459v1.008zm8 0V7.087h7.459v1.008zm8 0V7.087h7.459v1.008zm11.258 6.528V8.094h-3.258V7.086h4.195v7.535z"/></svg>
